<?xml version="1.0" encoding="UTF-8" standalone="no"?>
<!-- Created with Inkscape (http://www.inkscape.org/) -->

<svg
   width="181.48161mm"
   height="181.48163mm"
   viewBox="0 0 181.48161 181.48163"
   version="1.1"
   id="svg1"
   xml:space="preserve"
   inkscape:version="1.4 (86a8ad7, 2024-10-11)"
   sodipodi:docname="Cathub Logo.svg"
   inkscape:export-filename="Cathub Logo.png"
   inkscape:export-xdpi="143.3181"
   inkscape:export-ydpi="143.3181"
   xmlns:inkscape="http://www.inkscape.org/namespaces/inkscape"
   xmlns:sodipodi="http://sodipodi.sourceforge.net/DTD/sodipodi-0.dtd"
   xmlns="http://www.w3.org/2000/svg"
   xmlns:svg="http://www.w3.org/2000/svg"><sodipodi:namedview
     id="namedview1"
     pagecolor="#ffffff"
     bordercolor="#000000"
     borderopacity="0.25"
     inkscape:showpageshadow="2"
     inkscape:pageopacity="0.0"
     inkscape:pagecheckerboard="0"
     inkscape:deskcolor="#d1d1d1"
     inkscape:document-units="mm"
     showgrid="true"
     inkscape:zoom="0.70710678"
     inkscape:cx="603.86919"
     inkscape:cy="528.20876"
     inkscape:window-width="1920"
     inkscape:window-height="991"
     inkscape:window-x="-9"
     inkscape:window-y="-9"
     inkscape:window-maximized="1"
     inkscape:current-layer="layer4"><inkscape:grid
       id="grid1"
       units="mm"
       originx="-15.180233"
       originy="-66.123725"
       spacingx="0.99999998"
       spacingy="1"
       empcolor="#0099e5"
       empopacity="0.30196078"
       color="#0099e5"
       opacity="0.14901961"
       empspacing="5"
       enabled="true"
       visible="true" /><inkscape:page
       x="0"
       y="0"
       width="181.48161"
       height="181.48163"
       id="page2"
       margin="0"
       bleed="0" /></sodipodi:namedview><defs
     id="defs1"><inkscape:path-effect
       effect="bspline"
       id="path-effect6"
       is_visible="true"
       lpeversion="1.3"
       weight="33.333333"
       steps="2"
       helper_size="0"
       apply_no_weight="true"
       apply_with_weight="true"
       only_selected="false"
       uniform="false" /></defs><circle
     style="display:inline;fill:#000000;fill-opacity:1;fill-rule:evenodd;stroke:#000000;stroke-width:1.48162;stroke-linecap:round;stroke-linejoin:round;stroke-miterlimit:4.9;stroke-dasharray:none;stroke-opacity:1;paint-order:normal"
     id="path12"
     cx="90.740807"
     cy="90.740807"
     r="90" /><rect
     style="fill:#ffffff;fill-opacity:1;fill-rule:evenodd;stroke:#000000;stroke-width:1.47433;stroke-linecap:round;stroke-linejoin:round;stroke-miterlimit:4.9;stroke-dasharray:none;stroke-opacity:1;paint-order:normal"
     id="rect13"
     width="128.78799"
     height="53.21965"
     x="28.186214"
     y="83.469521"
     ry="1.6341026" /><path
     style="display:inline;fill:#000000;fill-opacity:1;fill-rule:evenodd;stroke:#000000;stroke-width:0.245488;stroke-linecap:round;stroke-miterlimit:4.9;stroke-opacity:0"
     id="path5-2-8"
     sodipodi:type="arc"
     sodipodi:cx="67.862289"
     sodipodi:cy="106.58599"
     sodipodi:rx="17.459005"
     sodipodi:ry="23.356396"
     sodipodi:start="0"
     sodipodi:end="6.2815859"
     sodipodi:arc-type="slice"
     d="M 85.321295,106.58599 A 17.459005,23.356396 0 0 1 67.86927,129.94238 17.459005,23.356396 0 0 1 50.40329,106.60467 17.459005,23.356396 0 0 1 67.841346,83.229612 17.459005,23.356396 0 0 1 85.321272,106.54863 l -17.458983,0.0374 z" /><path
     style="display:inline;fill:#000000;fill-opacity:1;fill-rule:evenodd;stroke:#000000;stroke-width:0.245488;stroke-linecap:round;stroke-miterlimit:4.9;stroke-opacity:0"
     id="path5-2-8-1"
     sodipodi:type="arc"
     sodipodi:cx="131.48029"
     sodipodi:cy="106.72857"
     sodipodi:rx="17.459005"
     sodipodi:ry="23.356396"
     sodipodi:start="0"
     sodipodi:end="6.2815859"
     sodipodi:arc-type="slice"
     d="m 148.93929,106.72857 a 17.459005,23.356396 0 0 1 -17.45202,23.35639 17.459005,23.356396 0 0 1 -17.46598,-23.33771 17.459005,23.356396 0 0 1 17.43805,-23.37506 17.459005,23.356396 0 0 1 17.47993,23.31902 l -17.45898,0.0374 z" /><g
     inkscape:groupmode="layer"
     id="layer4"
     inkscape:label="cara"
     style="display:inline"
     transform="translate(-15.180232,-66.123723)"><path
       d="m 60.076408,94.285686 c -0.02514,-0.01751 -0.0056,0.006 -0.02042,0.008 -5.377145,5.022982 -10.939083,19.182834 -15.702261,30.746624 -4.763171,11.56378 -7.773166,25.04196 -8.666239,38.12344 -0.893071,13.0815 -0.623277,25.0573 3.306899,35.49178 1.170454,3.10751 12.865763,19.24053 20.903646,24.08283 8.037881,4.84226 34.714601,9.1649 48.893657,8.97651 14.82119,-0.19695 32.81996,-0.99422 46.58863,-10.72604 11.464,-8.10285 13.81228,-10.04638 19.42494,-21.29624 5.80254,-11.63053 6.92555,-23.33948 6.10685,-37.216 -0.81872,-13.8765 -4.6518,-26.78716 -8.14977,-38.27861 -3.49796,-11.49146 -12.45104,-28.991807 -13.44514,-29.328618 -0.89968,-0.30482 -16.05713,19.113418 -20.058,27.946148 -3.4901,7.70515 -6.2375,16.35221 -6.52846,17.38909 -0.24032,0.85646 -8.40413,-2.46831 -13.01845,-3.40784 -4.61431,-0.93954 -16.43156,-1.02818 -21.668782,-0.0204 -4.361226,0.83923 -12.712852,2.98339 -13.499529,3.20019 -0.835997,0.23041 -2.903435,-9.16126 -6.847973,-16.9668 -3.697983,-7.3177 -14.596636,-25.454463 -17.597977,-28.679286 -0.01483,-0.011 -0.01487,-0.03062 -0.02163,-0.04463 z m 80.658152,62.551494 c 9.30769,0.0195 15.61606,5.6552 18.21389,16.65843 2.22286,9.41502 -0.4536,18.70136 -6.33912,22.94503 -5.88549,4.24367 -16.19402,3.94896 -22.71912,-1.27505 -6.52513,-5.22401 -7.90468,-15.26885 -6.82359,-23.68562 1.08106,-8.41676 9.70035,-14.65958 17.66794,-14.64279 z m -67.88683,0.37085 c 7.823859,-0.34518 16.973787,5.6577 18.054871,14.07446 1.081077,8.41679 0.108467,18.48794 -6.416601,23.71193 -6.525115,5.22399 -13.162664,4.90227 -20.410178,2.6099 -7.000421,-2.21419 -11.377554,-14.41774 -9.215566,-23.84566 2.597813,-11.32846 10.16363,-16.20547 17.987474,-16.55063 z"
       style="display:inline;fill:#ffffff;fill-opacity:1;fill-rule:evenodd;stroke:#000000;stroke-width:3.948;stroke-linecap:round;stroke-miterlimit:4.9;stroke-dasharray:none;stroke-opacity:1"
       id="path4"
       sodipodi:nodetypes="scssssssssssssssssscsssssssssssss" /></g><g
     inkscape:groupmode="layer"
     id="layer3"
     inkscape:label="sobre"
     style="display:inline"
     transform="translate(-15.180232,-66.123723)"><rect
       style="fill:#ffffff;fill-opacity:1;fill-rule:evenodd;stroke:#000000;stroke-width:2.14617;stroke-linecap:round;stroke-linejoin:round;stroke-miterlimit:4.9;stroke-dasharray:none;stroke-opacity:1;paint-order:normal"
       id="rect6"
       width="68.032043"
       height="39.650787"
       x="73.882179"
       y="204.5621"
       ry="1.9709457" /><path
       sodipodi:type="star"
       style="fill:#ffffff;fill-opacity:1;fill-rule:evenodd;stroke:#000000;stroke-width:1.26363;stroke-linecap:round;stroke-linejoin:round;stroke-miterlimit:4.9;stroke-dasharray:none;stroke-opacity:1;paint-order:normal"
       id="path7"
       inkscape:flatsided="false"
       sodipodi:sides="3"
       sodipodi:cx="100.31883"
       sodipodi:cy="208.3127"
       sodipodi:r1="21.351088"
       sodipodi:r2="10.525893"
       sodipodi:arg1="0.3338224"
       sodipodi:arg2="1.4602988"
       inkscape:rounded="0"
       inkscape:randomized="0"
       d="m 120.49127,215.30853 -19.01172,3.46587 -17.305503,3.51023 6.504328,-18.19757 5.612803,-16.74212 12.507392,14.7317 z"
       inkscape:transform-center-x="-0.69120277"
       inkscape:transform-center-y="1.7020719"
       transform="matrix(0.55994708,0.89039259,-1.642485,0.3115729,393.81197,60.332891)" /><path
       style="fill:#000000;fill-opacity:1;fill-rule:evenodd;stroke:#000000;stroke-width:1.74722;stroke-linecap:round;stroke-linejoin:round;stroke-miterlimit:4.9;stroke-dasharray:none;stroke-opacity:1;paint-order:normal"
       d="m 103.79072,225.10245 c 2.05759,0.01 3.73944,2.93021 3.73944,2.93021 0,0 2.28565,-2.86098 4.1995,-2.84567 1.91385,0.0153 4.22207,1.24391 4.17113,4.76988 -0.0509,3.52595 -8.31388,8.15754 -8.31388,8.15754 0,0 -8.49561,-4.36999 -8.398999,-8.34725 0.09664,-3.97725 2.545219,-4.67344 4.602809,-4.66471 z"
       id="path10"
       sodipodi:nodetypes="zczzczz" /></g><path
     style="display:inline;fill:#ffffff;fill-opacity:1;fill-rule:evenodd;stroke:#000000;stroke-width:2.7;stroke-linecap:round;stroke-linejoin:round;stroke-miterlimit:4.9;stroke-dasharray:none;stroke-opacity:1;paint-order:normal"
     d="m 101.2867,205.3072 c 0.92259,1.56784 2.20174,3.45826 4.19411,4.51106 1.99238,1.05279 4.69783,1.26787 6.53736,1.05844 1.83953,-0.20943 2.81302,-0.84333 3.60341,-1.42009 0.7904,-0.57676 1.60499,-1.27377 2.01496,-1.16196 0.40997,0.11181 1.26585,1.26442 3.36171,1.92801 2.09585,0.6636 5.64937,1.13158 8.08324,0.14672 2.43387,-0.98487 3.74784,-3.42254 4.6652,-5.10552 0.91736,-1.68297 1.43808,-2.61122 -4.38057,-3.15459 -5.81866,-0.54337 -17.97622,-0.70185 -23.77211,-0.15847 -5.795892,0.54338 -5.2299,1.78857 -4.30731,3.3564 z"
     id="path6"
     inkscape:path-effect="#path-effect6"
     inkscape:original-d="m 100.93012,204.98458 c 1.27917,1.89046 2.55832,3.78088 3.83751,5.67138 2.70556,0.21509 5.41101,0.43017 8.11652,0.64525 0.97355,-0.63394 1.94704,-1.26784 2.92059,-1.90178 0.60724,-0.51958 1.42183,-1.21659 1.82167,-1.55871 0.4201,0.56574 1.27598,1.71835 1.91397,2.57752 3.55372,0.46802 7.10724,0.936 10.66096,1.40402 1.31402,-2.43775 2.62799,-4.87542 3.94198,-7.31312 0.52073,-0.92825 1.04145,-1.8565 1.56218,-2.78475 -12.15804,-0.15849 -24.3156,-0.31696 -36.4734,-0.47545 0.566015,1.24524 1.13201,2.49043 1.69802,3.73564 z"
     sodipodi:nodetypes="ccccscccccc"
     transform="matrix(1.1816241,0,0,1.1285884,-46.460685,-92.953068)" /><rect
     style="display:inline;fill:#ffffff;fill-opacity:1;fill-rule:evenodd;stroke:#000000;stroke-width:2.42509;stroke-linecap:round;stroke-linejoin:round;stroke-miterlimit:4.9;stroke-dasharray:none;stroke-opacity:0;paint-order:normal"
     id="rect12"
     width="46.535042"
     height="4.4446373"
     x="69.30941"
     y="132.85616"
     ry="1.8428982" /></svg>
